<svg xmlns="http://www.w3.org/2000/svg" width="24" height="24" viewBox="0 0 24 24">
  <!-- Spiky badge background -->
  <path
    d="M10.5213 2.6237C11.3147 1.7526 12.6853 1.7526 13.4787 2.6237L14.4989 3.7439C14.8998 4.1842 15.4761 4.4229 16.0710 4.3951L17.5845 4.3244C18.7614 4.2693 19.7307 5.2386 19.6757 6.4155L19.6049 7.9291C19.5771 8.5239 19.8158 9.1002 20.2561 9.5011L21.3763 10.5213C22.2475 11.3147 22.2475 12.6853 21.3763 13.4787L20.2561 14.4989C19.8158 14.8998 19.5771 15.4761 19.6049 16.0710L19.6757 17.5845C19.7307 18.7614 18.7614 19.7307 17.5845 19.6757L16.0710 19.6049C15.4761 19.5771 14.8998 19.8158 14.4989 20.2561L13.4787 21.3763C12.6853 22.2475 11.3147 22.2475 10.5213 21.3763L9.5011 20.2561C9.1002 19.8158 8.5239 19.5771 7.9291 19.6049L6.4155 19.6757C5.2386 19.7307 4.2693 18.7614 4.3244 17.5845L4.3951 16.0710C4.4229 15.4761 4.1842 14.8998 3.7439 14.4989L2.6237 13.4787C1.7526 12.6853 1.7526 11.3147 2.6237 10.5213L3.7439 9.5011C4.1842 9.1002 4.4229 8.5239 4.3951 7.9291L4.3244 6.4155C4.2693 5.2386 5.2386 4.2693 6.4155 4.3244L7.9291 4.3951C8.5239 4.4229 9.1002 4.1842 9.5011 3.7439L10.5213 2.6237Z"
    fill="#1DA1F2"
  />
  <!-- Checkmark -->
  <path
    d="M9 12L11 14L15 10"
    stroke="#ffffff"
    stroke-width="1.5"
    stroke-linecap="round"
    stroke-linejoin="round"
  />
</svg>
